<svg width="512" height="512" fill="none" xmlns="http://www.w3.org/2000/svg"><path fill="#FC784E" d="M0 0h512v512H0z"/><path d="M256.366 385.829c-21.699 0-40.351-3.292-55.955-9.875-15.603-6.583-27.428-15.238-35.474-25.965-8.046-10.728-12.312-22.309-12.8-34.743 0-2.195.732-4.023 2.194-5.486 1.463-1.463 3.292-2.194 5.486-2.194h32.549c2.925 0 5.12.609 6.583 1.828 1.706.976 3.291 2.682 4.754 5.12 2.438 8.29 8.046 15.238 16.823 20.846 8.777 5.608 20.724 8.411 35.84 8.411 17.31 0 30.354-2.803 39.131-8.411 8.777-5.851 13.166-13.897 13.166-24.137 0-6.827-2.316-12.434-6.949-16.823-4.388-4.389-11.093-8.168-20.114-11.337-8.777-3.17-21.943-7.071-39.497-11.703-28.77-6.827-49.859-15.848-63.269-27.063-13.165-11.459-19.748-27.672-19.748-48.64 0-14.141 3.779-26.697 11.337-37.668 7.802-10.972 18.895-19.627 33.28-25.966 14.628-6.339 31.573-9.509 50.834-9.509 19.993 0 37.303 3.536 51.932 10.606 14.628 7.07 25.721 15.97 33.28 26.697 7.801 10.484 11.946 20.968 12.434 31.452 0 2.194-.732 4.022-2.194 5.485-1.463 1.463-3.292 2.195-5.486 2.195h-34.012c-5.12 0-8.655-2.317-10.605-6.949-1.463-7.802-6.339-14.263-14.629-19.383-8.289-5.364-18.529-8.046-30.72-8.046-13.653 0-24.381 2.56-32.183 7.68-7.802 5.12-11.703 12.557-11.703 22.309 0 6.827 1.951 12.434 5.852 16.823 3.901 4.388 9.996 8.289 18.286 11.703 8.533 3.413 20.723 7.192 36.571 11.337 21.455 4.876 38.522 10.362 51.2 16.457 12.922 6.095 22.43 13.775 28.526 23.04 6.095 9.265 9.143 21.09 9.143 35.474 0 15.604-4.389 29.257-13.166 40.96-8.533 11.459-20.724 20.236-36.572 26.332-15.603 6.095-33.645 9.143-54.125 9.143z" fill="#fff"/></svg>