<svg width="22" height="22" fill="none" xmlns="http://www.w3.org/2000/svg"><g id="timer 1" opacity=".9"><g id="Group" fill="#31352B"><path id="Vector" d="M11.575 2.54v-.959a.611.611 0 00-1.222 0v.965c-4.803.333-8.609 4.344-8.609 9.23 0 5.102 4.153 9.254 9.256 9.254 5.103 0 9.256-4.152 9.256-9.255 0-4.91-3.845-8.937-8.681-9.235zM11 19.808c-4.43 0-8.033-3.604-8.033-8.033 0-4.43 3.603-8.033 8.033-8.033s8.033 3.604 8.033 8.033c0 4.429-3.603 8.033-8.033 8.033z"/><path id="Vector_2" d="M7.863 17.322a6.39 6.39 0 01-3.234-5.547.305.305 0 10-.611 0 7.004 7.004 0 003.544 6.079.306.306 0 00.301-.532z"/><path id="Vector_3" d="M9.53 18.16a6.839 6.839 0 01-.353-.102.305.305 0 00-.186.582c.127.04.255.078.385.11a.305.305 0 00.153-.59z"/><path id="Vector_4" d="M18.885 5.728a.611.611 0 00.863-.865L18.162 3.28a.61.61 0 10-.863.865l1.586 1.583z"/><path id="Vector_5" d="M11.575 11.661V6.776a.611.611 0 00-1.223 0v5.15c0 .168.088.328.21.443l1.789 1.672a.61.61 0 00.657.117.61.61 0 00.163-1.006l-1.596-1.49z"/></g></g></svg>