<svg width="21" height="20" fill="none" xmlns="http://www.w3.org/2000/svg"><g id="Cart icon" stroke="#363853" stroke-width="1.5" stroke-linecap="round" stroke-linejoin="round"><path id="Stroke 1" d="M1 1.176l2.08.356.963 11.34a1.79 1.79 0 001.8 1.633h10.909a1.794 1.794 0 001.785-1.528l.949-6.482a1.328 1.328 0 00-1.135-1.501c-.064-.009-14.937-.014-14.937-.014"/><path id="Stroke 3" d="M12.375 8.633h2.773"/><path id="Stroke 5" fill-rule="evenodd" clip-rule="evenodd" d="M5.404 17.932a.54.54 0 01.544.538.541.541 0 01-.544.539.541.541 0 01-.544-.54.54.54 0 01.544-.537z"/><path id="Stroke 7" fill-rule="evenodd" clip-rule="evenodd" d="M16.685 17.932c.3 0 .545.24.545.538a.542.542 0 01-.545.539.541.541 0 01-.544-.54.54.54 0 01.544-.537z"/></g></svg>